# xmcd
#
# Track frame offsets:
#	182
#	12155
#	25040
#	38237
#	51990
#	66720
#	80272
#	94890
#	108340
#	120870
#	135650
#	148092
#	159767
#	172890
#	185215
#	197947
#	209665
#	222857
#	235995
#	250557
#	265925
#	279312
#	290515
#
# Disc length: 4068 seconds
# Revision: 1
# Processed by: cddbd v1.5.2PL0 Copyright (c) Steve Scherf et al.
# Submitted via: dBpowerAMP V12.0
#
DISCID=510fe217
DTITLE=Joe Turner - L'Art Vocal Vol. 10 1938-1941
DYEAR=1938
DGENRE=Blues
TTITLE0=Goin' Away Blues
TTITLE1=Roll 'Em, Pete
TTITLE2=Cherry Red
TTITLE3=Baby, Look At You
TTITLE4=Lovin' Mama Blues
TTITLE5=Cafe Society Rag
TTITLE6=How Long, How Long Blues
TTITLE7=Shake It and Break It
TTITLE8=Low Down Dirty Shame
TTITLE9=I Can't Give You Anything But Love
TTITLE10=Joe Turner Blues
TTITLE11=Beale Street Blues
TTITLE12=Piney Brown Blues
TTITLE13=Doggin' the Dog
TTITLE14=Careless Love
TTITLE15=Jumpin' Down Blues
TTITLE16=Rainy Day Blues
TTITLE17=Wee Baby Blues
TTITLE18=Last Goodbye Blues
TTITLE19=Lucille
TTITLE20=Rock Me Mama
TTITLE21=Corrine Corrina
TTITLE22=Lonesome Graveyard
EXTD=
EXTT0=
EXTT1=
EXTT2=
EXTT3=
EXTT4=
EXTT5=
EXTT6=
EXTT7=
EXTT8=
EXTT9=
EXTT10=
EXTT11=
EXTT12=
EXTT13=
EXTT14=
EXTT15=
EXTT16=
EXTT17=
EXTT18=
EXTT19=
EXTT20=
EXTT21=
EXTT22=
PLAYORDER=
